<?xml version="1.0" encoding="UTF-8"?>
<svg id="Layer_2" data-name="Layer 2" xmlns="http://www.w3.org/2000/svg" xmlns:xlink="http://www.w3.org/1999/xlink" viewBox="0 0 387.8299901 92.8299901">
  <defs>
    <style>
      .cls-1 {
        fill: none;
      }

      .cls-1, .cls-2, .cls-3, .cls-4 {
        stroke-width: 0px;
      }

      .cls-5 {
        fill: #fdfae2;
      }

      .cls-5, .cls-6 {
        stroke-width: .6599802px;
      }

      .cls-5, .cls-6, .cls-7, .cls-8 {
        stroke-miterlimit: 10;
      }

      .cls-5, .cls-6, .cls-8 {
        stroke: #38393d;
      }

      .cls-6 {
        fill: #838870;
      }

      .cls-9 {
        opacity: .36;
      }

      .cls-2 {
        fill: url(#Unnamed_Pattern_2);
      }

      .cls-3, .cls-7 {
        fill: #38393d;
      }

      .cls-4 {
        fill: #2e2e48;
      }

      .cls-7 {
        stroke: #231f20;
      }

      .cls-7, .cls-8 {
        stroke-width: .75px;
      }

      .cls-8 {
        fill: #d4a473;
      }
    </style>
    <pattern id="Unnamed_Pattern_2" data-name="Unnamed Pattern 2" x="0" y="0" width="27.8384" height="27.83836" patternTransform="translate(-7460.3720491 -7022.5171197) rotate(16) scale(.1047493)" patternUnits="userSpaceOnUse" viewBox="0 0 27.8384 27.83836">
      <g>
        <rect class="cls-1" x="0" y="0" width="27.8384" height="27.83836"/>
        <path class="cls-4" d="m29.1719,27.839c0,.7328-.5941,1.3269-1.3269,1.3269s-1.3269-.5941-1.3269-1.3269c0-.7329.5941-1.327,1.3269-1.327s1.3269.5941,1.3269,1.327Z"/>
        <g>
          <path class="cls-4" d="m1.33351,27.839c0,.7328-.59408,1.3269-1.32692,1.3269-.732836,0-1.326918-.5941-1.326918-1.3269,0-.7329.594082-1.327,1.326918-1.327.73284,0,1.32692.5941,1.32692,1.327Z"/>
          <path class="cls-4" d="m8.28977,27.839c0,.7328-.59408,1.3269-1.32692,1.3269-.73283,0-1.32691-.5941-1.32691-1.3269,0-.7329.59408-1.327,1.32691-1.327.73284,0,1.32692.5941,1.32692,1.327Z"/>
          <path class="cls-4" d="m8.28977,27.839c0,.7328-.59408,1.3269-1.32692,1.3269-.73283,0-1.32691-.5941-1.32691-1.3269,0-.7329.59408-1.327,1.32691-1.327.73284,0,1.32692.5941,1.32692,1.327Z"/>
          <path class="cls-4" d="m15.246,27.839c0,.7328-.594,1.3269-1.3269,1.3269-.7328,0-1.3269-.5941-1.3269-1.3269,0-.7329.5941-1.327,1.3269-1.327.7329,0,1.3269.5941,1.3269,1.327Z"/>
          <path class="cls-4" d="m15.246,27.839c0,.7328-.594,1.3269-1.3269,1.3269-.7328,0-1.3269-.5941-1.3269-1.3269,0-.7329.5941-1.327,1.3269-1.327.7329,0,1.3269.5941,1.3269,1.327Z"/>
          <path class="cls-4" d="m22.2023,27.839c0,.7328-.5941,1.3269-1.3269,1.3269-.7329,0-1.3269-.5941-1.3269-1.3269,0-.7329.594-1.327,1.3269-1.327.7328,0,1.3269.5941,1.3269,1.327Z"/>
          <path class="cls-4" d="m22.2023,27.839c0,.7328-.5941,1.3269-1.3269,1.3269-.7329,0-1.3269-.5941-1.3269-1.3269,0-.7329.594-1.327,1.3269-1.327.7328,0,1.3269.5941,1.3269,1.327Z"/>
          <path class="cls-4" d="m29.1586,27.839c0,.7328-.5941,1.3269-1.327,1.3269-.7328,0-1.3269-.5941-1.3269-1.3269,0-.7329.5941-1.327,1.3269-1.327.7329,0,1.327.5941,1.327,1.327Z"/>
        </g>
        <path class="cls-4" d="m1.3202,27.839c0,.7328-.5941,1.3269-1.327,1.3269-.7328,0-1.3269-.5941-1.3269-1.3269,0-.7329.5941-1.327,1.3269-1.327.7329,0,1.327.5941,1.327,1.327Z"/>
        <g>
          <path class="cls-4" d="m29.1719.0006c0,.7328-.5941,1.3269-1.3269,1.3269S26.5181.7334,26.5181.0006c0-.7329.5941-1.327,1.3269-1.327S29.1719-.7323,29.1719.0006Z"/>
          <circle class="cls-4" cx="27.845" cy="8.8258" r="1.3269"/>
          <circle class="cls-4" cx="27.845" cy="19.22842" r="1.32691"/>
        </g>
        <g>
          <path class="cls-4" d="m1.33351.0006C1.33351.7334.73943,1.3275.00659,1.3275-.726246,1.3275-1.320328.7334-1.320328.0006-1.320328-.7323-.726246-1.3264.00659-1.3264.73943-1.3264,1.33351-.7323,1.33351.0006Z"/>
          <path class="cls-4" d="m8.28977.0006c0,.7328-.59408,1.3269-1.32692,1.3269C6.23002,1.3275,5.63594.7334,5.63594.0006c0-.7329.59408-1.327,1.32691-1.327C7.69569-1.3264,8.28977-.7323,8.28977.0006Z"/>
          <path class="cls-4" d="m8.28977.0006c0,.7328-.59408,1.3269-1.32692,1.3269C6.23002,1.3275,5.63594.7334,5.63594.0006c0-.7329.59408-1.327,1.32691-1.327C7.69569-1.3264,8.28977-.7323,8.28977.0006Z"/>
          <path class="cls-4" d="m15.246.0006c0,.7328-.594,1.3269-1.3269,1.3269-.7328,0-1.3269-.5941-1.3269-1.3269,0-.7329.5941-1.327,1.3269-1.327.7329,0,1.3269.5941,1.3269,1.327Z"/>
          <path class="cls-4" d="m15.246.0006c0,.7328-.594,1.3269-1.3269,1.3269-.7328,0-1.3269-.5941-1.3269-1.3269,0-.7329.5941-1.327,1.3269-1.327.7329,0,1.3269.5941,1.3269,1.327Z"/>
          <path class="cls-4" d="m22.2023.0006c0,.7328-.5941,1.3269-1.3269,1.3269-.7329,0-1.3269-.5941-1.3269-1.3269,0-.7329.594-1.327,1.3269-1.327.7328,0,1.3269.5941,1.3269,1.327Z"/>
          <path class="cls-4" d="m22.2023.0006c0,.7328-.5941,1.3269-1.3269,1.3269-.7329,0-1.3269-.5941-1.3269-1.3269,0-.7329.594-1.327,1.3269-1.327.7328,0,1.3269.5941,1.3269,1.327Z"/>
          <path class="cls-4" d="m29.1586.0006c0,.7328-.5941,1.3269-1.327,1.3269-.7328,0-1.3269-.5941-1.3269-1.3269,0-.7329.5941-1.327,1.3269-1.327.7329,0,1.327.5941,1.327,1.327Z"/>
          <circle class="cls-4" cx=".0065905" cy="8.8258" r="1.3269093"/>
          <circle class="cls-4" cx="6.9628525" cy="8.8258" r="1.3269063"/>
          <circle class="cls-4" cx="6.9628525" cy="8.8258" r="1.3269063"/>
          <circle class="cls-4" cx="13.9191" cy="8.8258" r="1.3269"/>
          <circle class="cls-4" cx="13.9191" cy="8.8258" r="1.3269"/>
          <circle class="cls-4" cx="20.8754" cy="8.8258" r="1.3269"/>
          <circle class="cls-4" cx="20.8754" cy="8.8258" r="1.3269"/>
          <path class="cls-4" d="m29.1586,8.8258c0,.7328-.5941,1.3269-1.327,1.3269-.7328,0-1.3269-.5941-1.3269-1.3269s.5941-1.3269,1.3269-1.3269c.7329,0,1.327.5941,1.327,1.3269Z"/>
          <circle class="cls-4" cx=".0065905" cy="19.22842" r="1.3269192"/>
          <circle class="cls-4" cx="6.9628525" cy="19.22842" r="1.3269163"/>
          <circle class="cls-4" cx="6.9628525" cy="19.22842" r="1.3269163"/>
          <circle class="cls-4" cx="13.9191" cy="19.22842" r="1.32691"/>
          <circle class="cls-4" cx="13.9191" cy="19.22842" r="1.32691"/>
          <circle class="cls-4" cx="20.8754" cy="19.22842" r="1.32691"/>
          <circle class="cls-4" cx="20.8754" cy="19.22842" r="1.32691"/>
          <path class="cls-4" d="m29.1586,19.22842c0,.73284-.5941,1.32692-1.327,1.32692-.7328,0-1.3269-.59408-1.3269-1.32692,0-.73282.5941-1.32692,1.3269-1.32692.7329,0,1.327.5941,1.327,1.32692Z"/>
        </g>
        <g>
          <path class="cls-4" d="m1.3202.0006C1.3202.7334.7261,1.3275-.0068,1.3275-.7396,1.3275-1.3337.7334-1.3337.0006-1.3337-.7323-.7396-1.3264-.0068-1.3264.7261-1.3264,1.3202-.7323,1.3202.0006Z"/>
          <path class="cls-4" d="m1.3202,8.8258c0,.7328-.5941,1.3269-1.327,1.3269-.7328,0-1.3269-.5941-1.3269-1.3269S-.7396,7.4989-.0068,7.4989c.7329,0,1.327.5941,1.327,1.3269Z"/>
          <path class="cls-4" d="m1.3202,19.22842c0,.73284-.5941,1.32692-1.327,1.32692-.7328,0-1.3269-.59408-1.3269-1.32692,0-.73282.5941-1.32692,1.3269-1.32692.7329,0,1.327.5941,1.327,1.32692Z"/>
        </g>
      </g>
    </pattern>
  </defs>
  <g>
    <path class="cls-7" d="m130.2704198,81.8417089c-1.3139648.5839844-2.9199219,1.1679688-4.8178711,1.7519531s-3.894043.8759766-5.9863281.8759766c-1.362793,0-2.6401367-.1708984-3.8325195-.5107422-1.1928711-.3408203-2.2387695-.8876953-3.1386719-1.6425781-.9013672-.7539062-1.6186523-1.7275391-2.1538086-2.9199219-.5361328-1.1923828-.8027344-2.6396484-.8027344-4.34375v-21.9731445h-5.0371094v-7.5185547h5.0371094v-12.4101562h9.7817383v12.4101562h8.0302734v7.5185547h-8.0302734v18.6879883c0,1.3632812.3525391,2.3242188,1.0585938,2.8837891.7050781.5595703,1.5698242.8388672,2.5917969.8388672s2.0185547-.1699219,2.9926758-.5107422c.9731445-.3398438,1.7519531-.6318359,2.3359375-.8759766l1.9711914,7.7382812Z"/>
    <path class="cls-7" d="m158.1556737,54.0287206c-2.9692383.0488281-5.6210938.6210938-7.9570312,1.7158203-2.3359375,1.0942383-4.0151367,2.7368164-5.0371094,4.9272461v23.140625h-9.7817383v-38.2514648h8.9790039v8.1757812c.6806641-1.3134766,1.4838867-2.4931641,2.4086914-3.5400391.9243164-1.0458984,1.9223633-1.9589844,2.9931641-2.7373047,1.0698242-.7783203,2.1533203-1.375,3.2485352-1.7890625,1.0952148-.4130859,2.1533203-.6201172,3.175293-.6201172h1.2045898c.2670898,0,.5224609.0244141.7666016.0722656v8.90625Z"/>
    <path class="cls-7" d="m173.558994,84.5428807c-1.8500977,0-3.5771484-.3046875-5.1831055-.9130859-1.605957-.6074219-2.9931641-1.4599609-4.1611328-2.5546875s-2.0805664-2.3730469-2.7373047-3.8330078c-.6572266-1.4599609-.9853516-3.0654297-.9853516-4.8173828,0-1.7998047.4013672-3.4677734,1.2041016-5.0009766.8032227-1.5332031,1.9223633-2.8339844,3.3583984-3.9052734,1.4345703-1.0703125,3.1503906-1.9091797,5.1464844-2.5185547,1.9946289-.6083984,4.1845703-.9121094,6.5698242-.9121094,1.703125,0,3.3696289.1455078,5.0004883.4375,1.6298828.2919922,3.0776367.7060547,4.34375,1.2412109v-2.1904297c0-2.5292969-.71875-4.4760742-2.1538086-5.8393555-1.4360352-1.3613281-3.5654297-2.0439453-6.387207-2.0439453-2.0444336,0-4.0405273.3652344-5.9863281,1.0947266-1.9467773.7304688-3.9418945,1.8017578-5.9858398,3.2114258l-2.9931641-6.2036133c4.9150391-3.2607422,10.2202148-4.8916016,15.9140625-4.8916016,5.4990234,0,9.7695312,1.3505859,12.8115234,4.0517578,3.0410156,2.7011719,4.5620117,6.6064453,4.5620117,11.7163086v11.8984375c0,1.0224609.1826172,1.7519531.5478516,2.1904297.3652344.4375.9599609.6816406,1.7880859.7294922v8.3222656c-1.6542969.3398438-3.0908203.5107422-4.3066406.5107422-1.8500977,0-3.2734375-.4140625-4.2705078-1.2412109-.9980469-.8261719-1.6181641-1.921875-1.8613281-3.2841797l-.21875-2.1171875c-1.7041016,2.2392578-3.7724609,3.9414062-6.2050781,5.109375-2.434082,1.1689453-5.0371094,1.7529297-7.8110352,1.7529297Zm2.7739258-7.1542969c1.6538086,0,3.2236328-.2919922,4.7084961-.8759766,1.4838867-.5839844,2.6391602-1.3623047,3.4672852-2.3359375,1.0703125-.8271484,1.6064453-1.7519531,1.6064453-2.7744141v-4.3798828c-1.168457-.4375-2.4345703-.7900391-3.7963867-1.0585938-1.362793-.2666016-2.6767578-.4013672-3.9418945-.4013672-2.53125,0-4.5991211.5722656-6.2050781,1.7158203s-2.4086914,2.5908203-2.4086914,4.3427734c0,1.6552734.6318359,3.0302734,1.8979492,4.125,1.2646484,1.0947266,2.8217773,1.6425781,4.671875,1.6425781Z"/>
    <path class="cls-7" d="m220.8622167,84.5428807c-2.6279297,0-5.0625-.5117188-7.2998047-1.5332031-2.2392578-1.0224609-4.1611328-2.4335938-5.7675781-4.234375-1.6054688-1.7998047-2.859375-3.9052734-3.7597656-6.3144531s-1.3496094-5-1.3496094-7.7744141.4248047-5.3525391,1.2773438-7.7382812c.8505859-2.3833008,2.03125-4.4760742,3.5400391-6.2768555,1.5078125-1.8007812,3.3095703-3.2119141,5.4023438-4.234375,2.0917969-1.0224609,4.3798828-1.5332031,6.8623047-1.5332031,2.8212891,0,5.3652344.6826172,7.6279297,2.0439453,2.2626953,1.3632812,4.0263672,3.1396484,5.2929688,5.3291016v-21.7539062h9.78125v42.0473633c0,1.0224609.1699219,1.7519531.5117188,2.1904297.3398438.4375.9238281.6816406,1.7519531.7294922v8.3222656c-1.7041016.3398438-3.0917969.5107422-4.1611328.5107422-1.7519531,0-3.1884766-.4375-4.3076172-1.3134766s-1.7519531-2.0195312-1.8974609-3.4316406l-.21875-2.4082031c-1.4121094,2.4335938-3.3222656,4.2705078-5.7304688,5.5107422-2.4091797,1.2412109-4.9277344,1.8623047-7.5556641,1.8623047Zm2.5546875-8.3222656c.9238281,0,1.8730469-.1572266,2.8466797-.4746094.9736328-.3164062,1.8730469-.7666016,2.7011719-1.3505859.8271484-.5839844,1.5693359-1.2646484,2.2265625-2.0439453.6572266-.7783203,1.1552734-1.6298828,1.4970703-2.5546875v-9.125c-.390625-1.0703125-.9375-2.0556641-1.6425781-2.9570312-.7060547-.8994141-1.5097656-1.6787109-2.4091797-2.3354492-.9013672-.6572266-1.8505859-1.1796875-2.8466797-1.5693359-.9980469-.3886719-1.984375-.5839844-2.9570312-.5839844-1.4599609,0-2.8105469.3173828-4.0517578.9492188-1.2402344.6328125-2.2988281,1.4960938-3.1748047,2.590332-.8759766,1.0957031-1.5585938,2.3486328-2.0439453,3.7597656-.4873047,1.4121094-.7304688,2.8720703-.7304688,4.3798828,0,1.6064453.2666016,3.0917969.8027344,4.453125.5351562,1.3632812,1.265625,2.5546875,2.1904297,3.5771484.9238281,1.0214844,2.03125,1.8251953,3.3212891,2.4091797,1.2890625.5839844,2.7128906.8759766,4.2705078.8759766Z"/>
    <path class="cls-7" d="m269.8446386,84.5428807c-3.0664062,0-5.8408203-.5244141-8.3222656-1.5703125-2.4824219-1.0458984-4.5996094-2.46875-6.3515625-4.2705078-1.7519531-1.7998047-3.1025391-3.8925781-4.0517578-6.2773438-.9482422-2.3837891-1.4228516-4.8916016-1.4228516-7.5195312,0-2.7246094.4619141-5.2919922,1.3867188-7.7011719.9238281-2.4086914,2.2626953-4.5258789,4.0146484-6.3510742,1.7529297-1.8242188,3.8808594-3.2724609,6.3876953-4.3427734s5.3173828-1.6064453,8.4316406-1.6064453,5.9003906.5361328,8.3583984,1.6064453c2.4570312,1.0703125,4.5507812,2.5068359,6.2783203,4.3066406,1.7265625,1.8007812,3.0410156,3.8945312,3.9423828,6.277832.8994141,2.3847656,1.3505859,4.8671875,1.3505859,7.4453125,0,.6337891-.0126953,1.2412109-.0371094,1.8251953s-.0849609,1.0712891-.1826172,1.4599609h-29.5644531c.1455078,1.5097656.5107422,2.8476562,1.0947266,4.015625s1.3378906,2.1660156,2.2626953,2.9931641,1.9716797,1.4599609,3.1396484,1.8974609c1.1679688.4384766,2.3837891.6572266,3.6494141.6572266,1.9462891,0,3.7841797-.4746094,5.5117188-1.4238281,1.7265625-.9492188,2.9072266-2.2011719,3.5410156-3.7597656l8.3945312,2.3359375c-1.4121094,2.9208984-3.6621094,5.3183594-6.7519531,7.1914062-3.0917969,1.8740234-6.7783203,2.8105469-11.0595703,2.8105469Zm9.9277344-23.0683594c-.2441406-2.8710938-1.3027344-5.1708984-3.1757812-6.8979492-1.8740234-1.7275391-4.1494141-2.5917969-6.8251953-2.5917969-1.3144531,0-2.5439453.2314453-3.6865234.6933594-1.1445312.4628906-2.1533203,1.1074219-3.0292969,1.9345703-.8769531.828125-1.5947266,1.824707-2.1542969,2.9926758s-.8886719,2.4580078-.9853516,3.8691406h19.8564453Z"/>
  </g>
  <g class="cls-9">
    <path class="cls-2" d="m130.874912,81.8426854c-1.3139648.5839844-2.9199219,1.1679688-4.8178711,1.7519531s-3.894043.8759766-5.9863281.8759766c-1.362793,0-2.6401367-.1708984-3.8325195-.5107422-1.1928711-.3408203-2.2387695-.8876953-3.1386719-1.6425781-.9013672-.7539062-1.6186523-1.7275391-2.1538086-2.9199219-.5361328-1.1923828-.8027344-2.6396484-.8027344-4.34375v-21.9736328h-5.0371094v-7.5185547h5.0371094v-12.4101562h9.7817383v12.4101562h8.0302734v7.5185547h-8.0302734v18.6884766c0,1.3632812.3525391,2.3242188,1.0585938,2.8837891.7050781.5595703,1.5698242.8388672,2.5917969.8388672s2.0185547-.1699219,2.9926758-.5107422c.9731445-.3398438,1.7519531-.6318359,2.3359375-.8759766l1.9711914,7.7382812Z"/>
    <path class="cls-2" d="m158.7601659,54.0292089c-2.9692383.0488281-5.6210938.6210938-7.9570312,1.7158203s-4.0151367,2.7373047-5.0371094,4.9277344v23.140625h-9.7817383v-38.2519531h8.9790039v8.1757812c.6806641-1.3134766,1.4838867-2.4931641,2.4086914-3.5400391.9243164-1.0458984,1.9223633-1.9589844,2.9931641-2.7373047,1.0698242-.7783203,2.1533203-1.375,3.2485352-1.7890625,1.0952148-.4130859,2.1533203-.6201172,3.175293-.6201172h1.2045898c.2670898,0,.5224609.0244141.7666016.0722656v8.90625Z"/>
    <path class="cls-2" d="m174.1634862,84.5438573c-1.8500977,0-3.5771484-.3046875-5.1831055-.9130859-1.605957-.6074219-2.9931641-1.4599609-4.1611328-2.5546875s-2.0805664-2.3730469-2.7373047-3.8330078c-.6572266-1.4599609-.9853516-3.0654297-.9853516-4.8173828,0-1.7998047.4013672-3.4677734,1.2041016-5.0009766.8032227-1.5332031,1.9223633-2.8339844,3.3583984-3.9052734,1.4345703-1.0703125,3.1503906-1.9091797,5.1464844-2.5185547,1.9946289-.6083984,4.1845703-.9121094,6.5698242-.9121094,1.703125,0,3.3696289.1455078,5.0004883.4375,1.6298828.2919922,3.0776367.7060547,4.34375,1.2412109v-2.1904297c0-2.5292969-.71875-4.4765625-2.1538086-5.8398438-1.4360352-1.3613281-3.5654297-2.0439453-6.387207-2.0439453-2.0444336,0-4.0405273.3652344-5.9863281,1.0947266-1.9467773.7304688-3.9418945,1.8017578-5.9858398,3.2119141l-2.9931641-6.2041016c4.9150391-3.2607422,10.2202148-4.8916016,15.9140625-4.8916016,5.4990234,0,9.7695312,1.3505859,12.8115234,4.0517578,3.0415039,2.7011719,4.5629883,6.6064453,4.5629883,11.7167969v11.8984375c0,1.0224609.1826172,1.7519531.546875,2.1904297.3652344.4375.9609375.6816406,1.7890625.7294922v8.3222656c-1.6552734.3398438-3.0908203.5107422-4.3076172.5107422-1.8500977,0-3.2734375-.4140625-4.2705078-1.2412109-.9980469-.8261719-1.6181641-1.921875-1.8613281-3.2841797l-.21875-2.1171875c-1.7041016,2.2392578-3.7724609,3.9414062-6.2050781,5.109375-2.434082,1.1689453-5.0371094,1.7529297-7.8110352,1.7529297Zm2.7739258-7.1542969c1.6538086,0,3.2236328-.2919922,4.7084961-.8759766,1.4838867-.5839844,2.6391602-1.3623047,3.4672852-2.3359375,1.0703125-.8271484,1.6064453-1.7519531,1.6064453-2.7744141v-4.3798828c-1.168457-.4375-2.4345703-.7900391-3.7963867-1.0585938-1.362793-.2666016-2.6767578-.4013672-3.9418945-.4013672-2.53125,0-4.5991211.5722656-6.2050781,1.7158203s-2.4086914,2.5908203-2.4086914,4.3427734c0,1.6552734.6318359,3.0302734,1.8979492,4.125,1.2646484,1.0947266,2.8217773,1.6425781,4.671875,1.6425781Z"/>
    <path class="cls-2" d="m221.4667089,84.5438573c-2.6279297,0-5.0615234-.5117188-7.2998047-1.5332031-2.2392578-1.0224609-4.1611328-2.4335938-5.7666016-4.234375-1.6064453-1.7998047-2.859375-3.9052734-3.7597656-6.3144531-.9013672-2.4091797-1.3505859-5-1.3505859-7.7744141s.4257812-5.3525391,1.2773438-7.7382812c.8515625-2.3837891,2.03125-4.4765625,3.5410156-6.2773438,1.5078125-1.8007812,3.3085938-3.2119141,5.4013672-4.234375,2.0917969-1.0224609,4.3798828-1.5332031,6.8623047-1.5332031,2.8222656,0,5.3652344.6826172,7.6289062,2.0439453,2.2626953,1.3632812,4.0263672,3.1396484,5.2919922,5.3291016v-21.7539062h9.7822266v42.0478516c0,1.0224609.1699219,1.7519531.5107422,2.1904297.3398438.4375.9238281.6816406,1.7519531.7294922v8.3222656c-1.7041016.3398438-3.0908203.5107422-4.1611328.5107422-1.7519531,0-3.1875-.4375-4.3066406-1.3134766-1.1201172-.8759766-1.7519531-2.0195312-1.8984375-3.4316406l-.21875-2.4082031c-1.4121094,2.4335938-3.3212891,4.2705078-5.7304688,5.5107422-2.4091797,1.2412109-4.9277344,1.8623047-7.5556641,1.8623047Zm2.5556641-8.3222656c.9238281,0,1.8720703-.1572266,2.8466797-.4746094.9726562-.3164062,1.8730469-.7666016,2.7011719-1.3505859.8271484-.5839844,1.5693359-1.2646484,2.2265625-2.0439453.65625-.7783203,1.1552734-1.6298828,1.4960938-2.5546875v-9.125c-.3896484-1.0703125-.9375-2.0556641-1.6425781-2.9570312-.7060547-.8994141-1.5087891-1.6787109-2.4091797-2.3359375s-1.8496094-1.1796875-2.8466797-1.5693359c-.9980469-.3886719-1.9833984-.5839844-2.9560547-.5839844-1.4599609,0-2.8105469.3173828-4.0517578.9492188-1.2412109.6328125-2.2998047,1.4960938-3.1757812,2.5908203-.8759766,1.0957031-1.5576172,2.3486328-2.0439453,3.7597656-.4873047,1.4121094-.7294922,2.8720703-.7294922,4.3798828,0,1.6064453.2666016,3.0917969.8027344,4.453125.5351562,1.3632812,1.2646484,2.5546875,2.1894531,3.5771484.9238281,1.0214844,2.0322266,1.8251953,3.3222656,2.4091797,1.2880859.5839844,2.7119141.8759766,4.2705078.8759766Z"/>
    <path class="cls-2" d="m270.4491307,84.5438573c-3.0664062,0-5.8408203-.5244141-8.3222656-1.5703125s-4.5986328-2.46875-6.3505859-4.2705078c-1.7519531-1.7998047-3.1025391-3.8925781-4.0517578-6.2773438-.9492188-2.3837891-1.4238281-4.8916016-1.4238281-7.5195312,0-2.7246094.4619141-5.2919922,1.3876953-7.7011719.9238281-2.4091797,2.2626953-4.5263672,4.0146484-6.3515625,1.7519531-1.8242188,3.8798828-3.2724609,6.3876953-4.3427734,2.5058594-1.0703125,5.3164062-1.6064453,8.4306641-1.6064453s5.9003906.5361328,8.3583984,1.6064453c2.4570312,1.0703125,4.5507812,2.5068359,6.2783203,4.3066406,1.7265625,1.8007812,3.0410156,3.8945312,3.9423828,6.2783203.8994141,2.3847656,1.3505859,4.8671875,1.3505859,7.4453125,0,.6337891-.0126953,1.2412109-.0371094,1.8251953s-.0849609,1.0712891-.1826172,1.4599609h-29.5644531c.1464844,1.5097656.5107422,2.8476562,1.0947266,4.015625s1.3378906,2.1660156,2.2626953,2.9931641,1.9716797,1.4599609,3.1396484,1.8974609c1.1679688.4384766,2.3837891.6572266,3.6494141.6572266,1.9462891,0,3.7841797-.4746094,5.5117188-1.4238281,1.7265625-.9492188,2.9072266-2.2011719,3.5410156-3.7597656l8.3945312,2.3359375c-1.4121094,2.9208984-3.6621094,5.3183594-6.7519531,7.1914062-3.0917969,1.8740234-6.7783203,2.8105469-11.0595703,2.8105469Zm9.9277344-23.0683594c-.2441406-2.8710938-1.3027344-5.1708984-3.1757812-6.8984375-1.8740234-1.7275391-4.1494141-2.5917969-6.8251953-2.5917969-1.3144531,0-2.5439453.2314453-3.6865234.6933594-1.1445312.4628906-2.1533203,1.1074219-3.0292969,1.9345703-.8759766.828125-1.5947266,1.8251953-2.1533203,2.9931641-.5605469,1.1679688-.8886719,2.4580078-.9853516,3.8691406h19.8554688Z"/>
  </g>
  <polygon class="cls-3" points="290.8299901 3.8299901 290.8299901 17.3299901 290.8299901 30.8299901 294.8299901 30.8299901 298.8299901 30.8299901 298.8299901 52.99734 298.8299901 75.1646899 307.7451473 83.99734 316.6603046 92.8299901 338.8325294 92.8299901 361.0047542 92.8299901 369.9173721 83.99734 378.8299901 75.1646899 378.8299901 52.99734 378.8299901 30.8299901 383.3299901 30.8299901 387.8299901 30.8299901 387.8299901 17.3299901 387.8299901 3.8299901 365.8299901 3.8299901 343.8299901 3.8299901 343.8299901 17.3299901 343.8299901 30.8299901 348.3299901 30.8299901 352.8299901 30.8299901 352.8299901 48.3299901 352.8299901 65.8299901 339.3299901 65.8299901 325.8299901 65.8299901 325.8299901 48.3299901 325.8299901 30.8299901 330.3299901 30.8299901 334.8299901 30.8299901 334.8299901 17.3299901 334.8299901 3.8299901 312.8299901 3.8299901 290.8299901 3.8299901 290.8299901 3.8299901 290.8299901 3.8299901"/>
  <polygon class="cls-3" points="2.8299901 3.8299901 2.8299901 17.3299901 2.8299901 30.8299901 7.3299901 30.8299901 11.8299901 30.8299901 11.8299901 52.99734 11.8299901 75.1646899 20.7451473 83.99734 29.6603046 92.8299901 51.8325294 92.8299901 74.0047542 92.8299901 82.9173721 83.99734 91.8299901 75.1646899 91.8299901 52.99734 91.8299901 30.8299901 95.8299901 30.8299901 99.8299901 30.8299901 99.8299901 17.3299901 99.8299901 3.8299901 77.8299901 3.8299901 55.8299901 3.8299901 55.8299901 17.3299901 55.8299901 30.8299901 60.3299901 30.8299901 64.8299901 30.8299901 64.8299901 48.3299901 64.8299901 65.8299901 51.3299901 65.8299901 37.8299901 65.8299901 37.8299901 48.3299901 37.8299901 30.8299901 42.3299901 30.8299901 46.8299901 30.8299901 46.8299901 17.3299901 46.8299901 3.8299901 24.8299901 3.8299901 2.8299901 3.8299901 2.8299901 3.8299901 2.8299901 3.8299901"/>
  <polygon class="cls-5" points=".3299901 .3299901 .3299901 13.8299901 .3299901 27.3299901 4.3299901 27.3299901 8.3299901 27.3299901 8.3299901 49.49734 8.3299901 71.6646899 17.2451473 80.49734 26.1603046 89.3299901 48.3325294 89.3299901 70.5047542 89.3299901 79.4173721 80.49734 88.3299901 71.6646899 88.3299901 49.49734 88.3299901 27.3299901 92.8299901 27.3299901 97.3299901 27.3299901 97.3299901 13.8299901 97.3299901 .3299901 75.3299901 .3299901 53.3299901 .3299901 53.3299901 13.8299901 53.3299901 27.3299901 57.8299901 27.3299901 62.3299901 27.3299901 62.3299901 44.8299901 62.3299901 62.3299901 48.8299901 62.3299901 35.3299901 62.3299901 35.3299901 44.8299901 35.3299901 27.3299901 39.8299901 27.3299901 44.3299901 27.3299901 44.3299901 13.8299901 44.3299901 .3299901 22.3299901 .3299901 .3299901 .3299901 .3299901 .3299901 .3299901 .3299901"/>
  <polygon class="cls-6" points="287.3299901 .3299901 287.3299901 13.8299901 287.3299901 27.3299901 291.3299901 27.3299901 295.3299901 27.3299901 295.3299901 49.49734 295.3299901 71.6646899 304.2451473 80.49734 313.1603046 89.3299901 335.3325294 89.3299901 357.5047542 89.3299901 366.4173721 80.49734 375.3299901 71.6646899 375.3299901 49.49734 375.3299901 27.3299901 379.8299901 27.3299901 384.3299901 27.3299901 384.3299901 13.8299901 384.3299901 .3299901 362.3299901 .3299901 340.3299901 .3299901 340.3299901 13.8299901 340.3299901 27.3299901 344.8299901 27.3299901 349.3299901 27.3299901 349.3299901 44.8299901 349.3299901 62.3299901 335.8299901 62.3299901 322.3299901 62.3299901 322.3299901 44.8299901 322.3299901 27.3299901 326.8299901 27.3299901 331.3299901 27.3299901 331.3299901 13.8299901 331.3299901 .3299901 309.3299901 .3299901 287.3299901 .3299901 287.3299901 .3299901 287.3299901 .3299901"/>
  <g>
    <path class="cls-8" d="m128.3993261,79.562412c-1.3139648.5839844-2.9199219,1.1679688-4.8178711,1.7519531s-3.894043.8759766-5.9863281.8759766c-1.362793,0-2.6401367-.1708984-3.8325195-.5107422-1.1928711-.3408203-2.2387695-.8876953-3.1386719-1.6425781-.9013672-.7539062-1.6186523-1.7275391-2.1538086-2.9199219-.5361328-1.1923828-.8027344-2.6396484-.8027344-4.34375v-21.9736328h-5.0371094v-7.5185547h5.0371094v-12.4101562h9.7817383v12.4101562h8.0302734v7.5185547h-8.0302734v18.6884766c0,1.3632812.3525391,2.3242188,1.0585938,2.8837891.7050781.5595703,1.5698242.8388672,2.5917969.8388672s2.0185547-.1699219,2.9926758-.5107422c.9731445-.3398438,1.7519531-.6318359,2.3359375-.8759766l1.9711914,7.7382812Z"/>
    <path class="cls-8" d="m156.28458,51.7489354c-2.9692383.0488281-5.6210938.6210938-7.9570312,1.7158203s-4.0151367,2.7373047-5.0371094,4.9277344v23.140625h-9.7817383v-38.2519531h8.9790039v8.1757812c.6806641-1.3134766,1.4838867-2.4931641,2.4086914-3.5400391.9243164-1.0458984,1.9223633-1.9589844,2.9931641-2.7373047,1.0698242-.7783203,2.1533203-1.375,3.2485352-1.7890625,1.0952148-.4130859,2.1533203-.6201172,3.175293-.6201172h1.2045898c.2670898,0,.5224609.0244141.7666016.0722656v8.90625Z"/>
    <path class="cls-8" d="m171.6879003,82.2635839c-1.8500977,0-3.5771484-.3046875-5.1831055-.9130859-1.605957-.6074219-2.9931641-1.4599609-4.1611328-2.5546875s-2.0805664-2.3730469-2.7373047-3.8330078c-.6572266-1.4599609-.9853516-3.0654297-.9853516-4.8173828,0-1.7998047.4013672-3.4677734,1.2041016-5.0009766.8032227-1.5332031,1.9223633-2.8339844,3.3583984-3.9052734,1.4345703-1.0703125,3.1503906-1.9091797,5.1464844-2.5185547,1.9946289-.6083984,4.1845703-.9121094,6.5698242-.9121094,1.703125,0,3.3696289.1455078,5.0004883.4375,1.6298828.2919922,3.0776367.7060547,4.34375,1.2412109v-2.1904297c0-2.5292969-.71875-4.4765625-2.1538086-5.8398438-1.4360352-1.3613281-3.5654297-2.0439453-6.387207-2.0439453-2.0444336,0-4.0405273.3652344-5.9863281,1.0947266-1.9467773.7304688-3.9418945,1.8017578-5.9858398,3.2119141l-2.9931641-6.2041016c4.9150391-3.2607422,10.2202148-4.8916016,15.9140625-4.8916016,5.4990234,0,9.7695312,1.3505859,12.8115234,4.0517578,3.0410156,2.7011719,4.5625,6.6064453,4.5625,11.7167969v11.8984375c0,1.0224609.1826172,1.7519531.5473633,2.1904297.3652344.4375.9609375.6816406,1.7890625.7294922v8.3222656c-1.6552734.3398438-3.0913086.5107422-4.3076172.5107422-1.8500977,0-3.2734375-.4140625-4.2705078-1.2412109-.9980469-.8261719-1.6181641-1.921875-1.8613281-3.2841797l-.21875-2.1171875c-1.7041016,2.2392578-3.7724609,3.9414062-6.2050781,5.109375-2.434082,1.1689453-5.0371094,1.7529297-7.8110352,1.7529297Zm2.7739258-7.1542969c1.6538086,0,3.2236328-.2919922,4.7084961-.8759766,1.4838867-.5839844,2.6391602-1.3623047,3.4672852-2.3359375,1.0703125-.8271484,1.6064453-1.7519531,1.6064453-2.7744141v-4.3798828c-1.168457-.4375-2.4345703-.7900391-3.7963867-1.0585938-1.362793-.2666016-2.6767578-.4013672-3.9418945-.4013672-2.53125,0-4.5991211.5722656-6.2050781,1.7158203s-2.4086914,2.5908203-2.4086914,4.3427734c0,1.6552734.6318359,3.0302734,1.8979492,4.125,1.2646484,1.0947266,2.8217773,1.6425781,4.671875,1.6425781Z"/>
    <path class="cls-8" d="m218.9911229,82.2635839c-2.6279297,0-5.0615234-.5117188-7.2998047-1.5332031-2.2392578-1.0224609-4.1611328-2.4335938-5.7666016-4.234375-1.6064453-1.7998047-2.859375-3.9052734-3.7597656-6.3144531-.9013672-2.4091797-1.3505859-5-1.3505859-7.7744141s.4257812-5.3525391,1.2773438-7.7382812c.8515625-2.3837891,2.03125-4.4765625,3.5410156-6.2773438,1.5078125-1.8007812,3.3085938-3.2119141,5.4013672-4.234375,2.0917969-1.0224609,4.3798828-1.5332031,6.8623047-1.5332031,2.8222656,0,5.3652344.6826172,7.6289062,2.0439453,2.2626953,1.3632812,4.0263672,3.1396484,5.2919922,5.3291016v-21.7539062h9.7822266v42.0478516c0,1.0224609.1699219,1.7519531.5107422,2.1904297.3398438.4375.9238281.6816406,1.7519531.7294922v8.3222656c-1.7041016.3398438-3.0908203.5107422-4.1611328.5107422-1.7519531,0-3.1875-.4375-4.3066406-1.3134766-1.1201172-.8759766-1.7519531-2.0195312-1.8984375-3.4316406l-.21875-2.4082031c-1.4121094,2.4335938-3.3212891,4.2705078-5.7304688,5.5107422-2.4091797,1.2412109-4.9277344,1.8623047-7.5556641,1.8623047Zm2.5556641-8.3222656c.9238281,0,1.8720703-.1572266,2.8466797-.4746094.9726562-.3164062,1.8730469-.7666016,2.7011719-1.3505859.8271484-.5839844,1.5693359-1.2646484,2.2265625-2.0439453.65625-.7783203,1.1552734-1.6298828,1.4960938-2.5546875v-9.125c-.3896484-1.0703125-.9375-2.0556641-1.6425781-2.9570312-.7060547-.8994141-1.5087891-1.6787109-2.4091797-2.3359375s-1.8496094-1.1796875-2.8466797-1.5693359c-.9980469-.3886719-1.9833984-.5839844-2.9560547-.5839844-1.4599609,0-2.8105469.3173828-4.0517578.9492188-1.2412109.6328125-2.2998047,1.4960938-3.1757812,2.5908203-.8759766,1.0957031-1.5576172,2.3486328-2.0439453,3.7597656-.4873047,1.4121094-.7294922,2.8720703-.7294922,4.3798828,0,1.6064453.2666016,3.0917969.8027344,4.453125.5351562,1.3632812,1.2646484,2.5546875,2.1894531,3.5771484.9238281,1.0214844,2.0322266,1.8251953,3.3222656,2.4091797,1.2880859.5839844,2.7119141.8759766,4.2705078.8759766Z"/>
    <path class="cls-8" d="m267.9735448,82.2635839c-3.0664062,0-5.8408203-.5244141-8.3222656-1.5703125s-4.5986328-2.46875-6.3505859-4.2705078c-1.7519531-1.7998047-3.1025391-3.8925781-4.0517578-6.2773438-.9492188-2.3837891-1.4238281-4.8916016-1.4238281-7.5195312,0-2.7246094.4619141-5.2919922,1.3876953-7.7011719.9238281-2.4091797,2.2626953-4.5263672,4.0146484-6.3515625,1.7519531-1.8242188,3.8798828-3.2724609,6.3876953-4.3427734,2.5058594-1.0703125,5.3164062-1.6064453,8.4306641-1.6064453s5.9003906.5361328,8.3583984,1.6064453c2.4570312,1.0703125,4.5507812,2.5068359,6.2783203,4.3066406,1.7265625,1.8007812,3.0410156,3.8945312,3.9423828,6.2783203.8994141,2.3847656,1.3505859,4.8671875,1.3505859,7.4453125,0,.6337891-.0126953,1.2412109-.0371094,1.8251953s-.0849609,1.0712891-.1826172,1.4599609h-29.5644531c.1464844,1.5097656.5107422,2.8476562,1.0947266,4.015625s1.3378906,2.1660156,2.2626953,2.9931641,1.9716797,1.4599609,3.1396484,1.8974609c1.1679688.4384766,2.3837891.6572266,3.6494141.6572266,1.9462891,0,3.7841797-.4746094,5.5117188-1.4238281,1.7265625-.9492188,2.9072266-2.2011719,3.5410156-3.7597656l8.3945312,2.3359375c-1.4121094,2.9208984-3.6621094,5.3183594-6.7519531,7.1914062-3.0917969,1.8740234-6.7783203,2.8105469-11.0595703,2.8105469Zm9.9277344-23.0683594c-.2441406-2.8710938-1.3027344-5.1708984-3.1757812-6.8984375-1.8740234-1.7275391-4.1494141-2.5917969-6.8251953-2.5917969-1.3144531,0-2.5439453.2314453-3.6865234.6933594-1.1445312.4628906-2.1533203,1.1074219-3.0292969,1.9345703-.8759766.828125-1.5947266,1.8251953-2.1533203,2.9931641-.5605469,1.1679688-.8886719,2.4580078-.9853516,3.8691406h19.8554688Z"/>
  </g>
</svg>