<?xml version="1.0" encoding="UTF-8"?>
<svg xmlns="http://www.w3.org/2000/svg" xmlns:xlink="http://www.w3.org/1999/xlink" viewBox="0 0 140.82 111.64">
  <defs>
    <style>
      .cls-1 {
        fill: url(#Unnamed_Pattern_2);
      }

      .cls-1, .cls-2, .cls-3, .cls-4, .cls-5, .cls-6, .cls-7, .cls-8, .cls-9, .cls-10, .cls-11 {
        stroke-width: 0px;
      }

      .cls-1, .cls-3 {
        opacity: .36;
      }

      .cls-2 {
        fill: none;
      }

      .cls-3 {
        fill: url(#Unnamed_Pattern_2-2);
      }

      .cls-12 {
        fill: #fdfae2;
      }

      .cls-12, .cls-13, .cls-14 {
        stroke: #000;
        stroke-miterlimit: 10;
        stroke-width: .75px;
      }

      .cls-13 {
        fill: #e9ecc8;
      }

      .cls-5 {
        fill: #2e2e48;
      }

      .cls-6 {
        fill: #231f20;
      }

      .cls-7 {
        fill: #d4a473;
      }

      .cls-8, .cls-14 {
        fill: #cdd6ae;
      }

      .cls-9 {
        fill: #fcf9e3;
      }

      .cls-10 {
        fill: #eb8c9d;
      }

      .cls-11 {
        fill: #020202;
      }
    </style>
    <pattern id="Unnamed_Pattern_2" data-name="Unnamed Pattern 2" x="0" y="0" width="27.84" height="27.84" patternTransform="translate(-7542.12 -7050.93) rotate(16) scale(.1)" patternUnits="userSpaceOnUse" viewBox="0 0 27.84 27.84">
      <g>
        <rect class="cls-2" x="0" y="0" width="27.84" height="27.84"/>
        <path class="cls-5" d="m29.17,27.84c0,.73-.59,1.33-1.33,1.33s-1.33-.59-1.33-1.33.59-1.33,1.33-1.33,1.33.59,1.33,1.33Z"/>
        <g>
          <path class="cls-5" d="m1.33,27.84c0,.73-.59,1.33-1.33,1.33s-1.33-.59-1.33-1.33.59-1.33,1.33-1.33,1.33.59,1.33,1.33Z"/>
          <path class="cls-5" d="m8.29,27.84c0,.73-.59,1.33-1.33,1.33s-1.33-.59-1.33-1.33.59-1.33,1.33-1.33,1.33.59,1.33,1.33Z"/>
          <path class="cls-5" d="m8.29,27.84c0,.73-.59,1.33-1.33,1.33s-1.33-.59-1.33-1.33.59-1.33,1.33-1.33,1.33.59,1.33,1.33Z"/>
          <path class="cls-5" d="m15.25,27.84c0,.73-.59,1.33-1.33,1.33s-1.33-.59-1.33-1.33.59-1.33,1.33-1.33,1.33.59,1.33,1.33Z"/>
          <path class="cls-5" d="m15.25,27.84c0,.73-.59,1.33-1.33,1.33s-1.33-.59-1.33-1.33.59-1.33,1.33-1.33,1.33.59,1.33,1.33Z"/>
          <path class="cls-5" d="m22.2,27.84c0,.73-.59,1.33-1.33,1.33s-1.33-.59-1.33-1.33.59-1.33,1.33-1.33,1.33.59,1.33,1.33Z"/>
          <path class="cls-5" d="m22.2,27.84c0,.73-.59,1.33-1.33,1.33s-1.33-.59-1.33-1.33.59-1.33,1.33-1.33,1.33.59,1.33,1.33Z"/>
          <path class="cls-5" d="m29.16,27.84c0,.73-.59,1.33-1.33,1.33s-1.33-.59-1.33-1.33.59-1.33,1.33-1.33,1.33.59,1.33,1.33Z"/>
        </g>
        <path class="cls-5" d="m1.32,27.84c0,.73-.59,1.33-1.33,1.33s-1.33-.59-1.33-1.33.59-1.33,1.33-1.33,1.33.59,1.33,1.33Z"/>
        <g>
          <path class="cls-5" d="m29.17,0c0,.73-.59,1.33-1.33,1.33S26.52.73,26.52,0s.59-1.33,1.33-1.33S29.17-.73,29.17,0Z"/>
          <circle class="cls-5" cx="27.85" cy="8.83" r="1.33"/>
          <circle class="cls-5" cx="27.85" cy="19.23" r="1.33"/>
        </g>
        <g>
          <path class="cls-5" d="m1.33,0C1.33.73.74,1.33,0,1.33S-1.32.73-1.32,0-.73-1.33,0-1.33,1.33-.73,1.33,0Z"/>
          <path class="cls-5" d="m8.29,0c0,.73-.59,1.33-1.33,1.33S5.64.73,5.64,0s.59-1.33,1.33-1.33S8.29-.73,8.29,0Z"/>
          <path class="cls-5" d="m8.29,0c0,.73-.59,1.33-1.33,1.33S5.64.73,5.64,0s.59-1.33,1.33-1.33S8.29-.73,8.29,0Z"/>
          <path class="cls-5" d="m15.25,0c0,.73-.59,1.33-1.33,1.33S12.59.73,12.59,0s.59-1.33,1.33-1.33S15.25-.73,15.25,0Z"/>
          <path class="cls-5" d="m15.25,0c0,.73-.59,1.33-1.33,1.33S12.59.73,12.59,0s.59-1.33,1.33-1.33S15.25-.73,15.25,0Z"/>
          <path class="cls-5" d="m22.2,0c0,.73-.59,1.33-1.33,1.33S19.55.73,19.55,0s.59-1.33,1.33-1.33S22.2-.73,22.2,0Z"/>
          <path class="cls-5" d="m22.2,0c0,.73-.59,1.33-1.33,1.33S19.55.73,19.55,0s.59-1.33,1.33-1.33S22.2-.73,22.2,0Z"/>
          <path class="cls-5" d="m29.16,0c0,.73-.59,1.33-1.33,1.33S26.5.73,26.5,0s.59-1.33,1.33-1.33S29.16-.73,29.16,0Z"/>
          <circle class="cls-5" cx="0" cy="8.83" r="1.33"/>
          <circle class="cls-5" cx="6.96" cy="8.83" r="1.33"/>
          <circle class="cls-5" cx="6.96" cy="8.83" r="1.33"/>
          <circle class="cls-5" cx="13.92" cy="8.83" r="1.33"/>
          <circle class="cls-5" cx="13.92" cy="8.83" r="1.33"/>
          <circle class="cls-5" cx="20.88" cy="8.83" r="1.33"/>
          <circle class="cls-5" cx="20.88" cy="8.83" r="1.33"/>
          <path class="cls-5" d="m29.16,8.83c0,.73-.59,1.33-1.33,1.33s-1.33-.59-1.33-1.33.59-1.33,1.33-1.33,1.33.59,1.33,1.33Z"/>
          <circle class="cls-5" cx="0" cy="19.23" r="1.33"/>
          <circle class="cls-5" cx="6.96" cy="19.23" r="1.33"/>
          <circle class="cls-5" cx="6.96" cy="19.23" r="1.33"/>
          <circle class="cls-5" cx="13.92" cy="19.23" r="1.33"/>
          <circle class="cls-5" cx="13.92" cy="19.23" r="1.33"/>
          <circle class="cls-5" cx="20.88" cy="19.23" r="1.33"/>
          <circle class="cls-5" cx="20.88" cy="19.23" r="1.33"/>
          <path class="cls-5" d="m29.16,19.23c0,.73-.59,1.33-1.33,1.33s-1.33-.59-1.33-1.33.59-1.33,1.33-1.33,1.33.59,1.33,1.33Z"/>
        </g>
        <g>
          <path class="cls-5" d="m1.32,0C1.32.73.73,1.33,0,1.33S-1.33.73-1.33,0-.74-1.33,0-1.33,1.32-.73,1.32,0Z"/>
          <path class="cls-5" d="m1.32,8.83c0,.73-.59,1.33-1.33,1.33s-1.33-.59-1.33-1.33S-.74,7.5,0,7.5s1.33.59,1.33,1.33Z"/>
          <path class="cls-5" d="m1.32,19.23c0,.73-.59,1.33-1.33,1.33s-1.33-.59-1.33-1.33.59-1.33,1.33-1.33,1.33.59,1.33,1.33Z"/>
        </g>
      </g>
    </pattern>
    <pattern id="Unnamed_Pattern_2-2" data-name="Unnamed Pattern 2" patternTransform="translate(-7769.28 -6983.46) rotate(28) scale(.1)" xlink:href="#Unnamed_Pattern_2"/>
  </defs>
  <g id="background">
    <polygon class="cls-6" points="2.19 2.59 2.19 24.08 9.35 24.08 9.35 59.8 23.68 74.03 59.31 74.03 73.63 59.8 73.63 24.08 80.8 24.08 80.8 2.59 45.07 2.59 45.07 24.08 52.24 24.08 52.24 52.55 30.75 52.55 30.75 24.08 37.91 24.08 37.91 2.59 2.19 2.59 2.19 2.59"/>
    <polygon class="cls-6" points="62.21 38.94 62.21 60.43 69.37 60.43 69.37 96.15 83.7 110.38 119.33 110.38 133.65 96.15 133.65 60.43 140.82 60.43 140.82 38.94 105.09 38.94 105.09 60.43 112.26 60.43 112.26 88.9 90.77 88.9 90.77 60.43 97.93 60.43 97.93 38.94 62.21 38.94 62.21 38.94"/>
  </g>
  <g id="back_U" data-name="back U">
    <polygon class="cls-14" points=".38 .38 .38 21.86 7.54 21.86 7.54 57.58 21.86 71.82 57.49 71.82 71.82 57.58 71.82 21.86 78.98 21.86 78.98 .38 43.26 .38 43.26 21.86 50.43 21.86 50.43 50.33 28.94 50.33 28.94 21.86 36.1 21.86 36.1 .38 .38 .38 .38 .38"/>
  </g>
  <g id="front_U" data-name="front U">
    <polygon class="cls-12" points="60.36 36.73 60.36 58.21 67.52 58.21 67.52 93.93 81.85 108.17 117.48 108.17 131.8 93.93 131.8 58.21 138.97 58.21 138.97 36.73 103.24 36.73 103.24 58.21 110.41 58.21 110.41 86.68 88.92 86.68 88.92 58.21 96.08 58.21 96.08 36.73 60.36 36.73 60.36 36.73"/>
  </g>
  <g id="top_arrow" data-name="top arrow">
    <g>
      <g>
        <path class="cls-6" d="m97.53,16.19c-3.5,0-6.03,1.65-6.03,1.65l1.14,2.42c1.36-.65,13.46-5.07,19.32,7.7-1.02-5.26-4.23-11.76-14.43-11.78Z"/>
        <path class="cls-11" d="m111.89,28.23c-.07-.02-.13-.07-.17-.14-1.87-4.08-4.57-6.78-8.02-8.03-5.54-2.01-10.89.43-10.94.45-.06.03-.14.03-.2.01-.07-.02-.12-.07-.15-.14l-1.14-2.42c-.06-.12-.02-.26.09-.33.11-.07,2.64-1.71,6.18-1.7h0c10.23.03,13.64,6.54,14.69,12,.03.13-.05.26-.18.3-.05.02-.1.02-.15,0Zm-8.86-8.95c.28.08.57.17.85.28,3,1.08,5.45,3.21,7.3,6.34-1.91-6.25-6.5-9.42-13.65-9.44h0c-2.83,0-5.04,1.12-5.69,1.49l.93,1.98c1.07-.43,5.5-2,10.25-.64Zm-5.5-3.09h0s0,0,0,0Z"/>
      </g>
      <g>
        <path class="cls-6" d="m94.14,23.75h0l-9.03-2.63-9.03-2.63,1.01-2.58s-.01,0-.02,0l-1.68,4.16,18.81,5.56c.39.11.73-.28.55-.65l-.91-1.9.3.66h0Z"/>
        <path class="cls-4" d="m94.13,25.88h0s-18.81-5.56-18.81-5.56c-.07-.02-.13-.07-.16-.14s-.04-.15,0-.21l1.68-4.16c.03-.08.1-.14.19-.16.09-.02.2.01.27.09.06.07.09.18.05.27l-.91,2.31,17.23,5.02-.06-.14c-.06-.13,0-.29.13-.35.13-.06.29,0,.35.13l.91,1.9c.13.26.09.57-.1.79-.19.22-.48.31-.76.23Zm-18.39-5.98l18.53,5.47c.12.02.18-.03.21-.06.03-.03.08-.11.03-.22l-.54-1.12-17.78-5.19-.45,1.11Z"/>
      </g>
      <g>
        <path class="cls-7" d="m106.36,7.98c-.86-.6-1.71-1.09-2.53-1.44-4.67-1.99-10.69-2.91-17.51-.09l-3.14-6-5.38,13.65-.71,1.81-1.01,2.58,9.03,2.63,9.03,2.63h0l-.3-.66h0s-2.34-5.24-2.34-5.24c0,0,2.53-1.66,6.03-1.65,10.21.02,12.92,5.6,13.94,10.86.68,3.53.6,6.92,1.51,8.38,0,0,0,0,0,0,.1.15.2.29.32.4,0-.13.29-.98.76-2.21,3.56-9.31.48-19.97-7.72-25.64Z"/>
        <path class="cls-6" d="m113.21,36.17c-.05-.01-.1-.04-.14-.08-.14-.13-.27-.28-.39-.47-.61-.97-.79-2.59-1.02-4.65-.13-1.18-.28-2.52-.54-3.86-.95-4.91-3.35-10.55-13.59-10.57-2.72,0-4.86,1.04-5.58,1.44l2.51,5.62c.06.13.03.27-.06.38-.09.1-.23.15-.36.11h0s-18.06-5.27-18.06-5.27c-.1-.03-.17-.09-.22-.18-.04-.09-.05-.19-.01-.29L82.85.32c.05-.13.17-.22.31-.22.14,0,.27.07.33.19l2.99,5.72c5.82-2.32,11.7-2.25,17.48.22.8.34,1.68.84,2.6,1.48h0c8.29,5.74,11.51,16.46,7.84,26.06-.62,1.62-.73,2-.74,2.09,0,.13-.08.25-.2.31-.08.04-.17.05-.25.02Zm-10.11-19.63c6.24,1.79,7.98,6.62,8.72,10.44.26,1.36.42,2.72.55,3.92.2,1.74.37,3.27.8,4.14.12-.34.3-.83.57-1.55,3.55-9.3.43-19.67-7.59-25.22-.88-.61-1.71-1.08-2.47-1.41-5.7-2.43-11.5-2.46-17.23-.09-.17.07-.36,0-.45-.16l-2.78-5.32-6.67,16.95,16.95,4.94-2.32-5.21c-.07-.16-.02-.34.13-.44.11-.07,2.66-1.72,6.22-1.71,2.17,0,4.01.26,5.57.71Z"/>
      </g>
      <polygon class="cls-1" points="76.99 16.18 76.08 18.48 85.11 21.11 94.14 23.75 93.84 23.08 93.84 23.08 92.82 20.79 85 18.51 76.99 16.18"/>
      <path class="cls-1" d="m115.42,23.48c-.04,2.53-.51,5.08-1.45,7.54-.47,1.23-.77,2.08-.76,2.21-.12-.11-.23-.24-.32-.4,0,0,0,0,0,0-.91-1.46-.83-4.85-1.51-8.38-1.02-5.26-3.73-10.84-13.94-10.86-3.5,0-6.03,1.65-6.03,1.65l.96,2.14c1.02-.49,2.89-1.2,5.18-1.2,10.21.02,12.92,5.6,13.94,10.86.68,3.53.6,6.92,1.51,8.38,0,0,0,0,0,0,.1.15.2.29.32.4,0-.13.29-.98.76-2.21,1.26-3.31,1.69-6.78,1.34-10.15Z"/>
      <path class="cls-9" d="m87.36,8c-.1-.03-.19-.1-.23-.2-.08-.18,0-.39.19-.46.09-.04,9.11-3.78,16.72,1.13.16.11.21.32.11.49-.11.16-.32.21-.49.11-7.29-4.7-15.98-1.11-16.07-1.07-.08.03-.16.04-.24.01Z"/>
    </g>
  </g>
  <g id="bottom_arrow" data-name="bottom arrow">
    <g>
      <g>
        <polygon class="cls-2" points="55.02 79.86 63.3 84.31 55.02 79.86 55.02 79.86"/>
        <path class="cls-10" d="m39.02,64.31s0,.11-.01.2c0,0,0,0,0,0,0-.08.01-.15.01-.2Z"/>
        <g>
          <path class="cls-6" d="m50.12,86.55c3.42.74,6.24-.36,6.24-.36l-.61-2.61c-1.46.35-14.31,2.19-17.39-11.52-.1,5.35,1.78,12.34,11.76,14.49Z"/>
          <path class="cls-6" d="m45.09,85.05c-5.79-3.08-7.07-8.53-6.99-13,0-.13.1-.25.24-.26.13-.01.26.07.29.21.98,4.36,3.05,7.55,6.16,9.48,5.04,3.13,10.85,1.85,10.91,1.84.07-.02.14,0,.2.03.06.04.1.1.12.17l.61,2.61c.03.13-.04.26-.16.31-.12.05-2.94,1.12-6.39.38h0c-1.95-.42-3.59-1.02-4.98-1.76Zm-6.37-10.76c.48,4.86,3.06,10.19,11.46,12h0c2.77.6,5.16-.05,5.87-.28l-.5-2.13c-1.22.22-6.44.91-11.05-1.95-2.69-1.67-4.63-4.24-5.79-7.64Z"/>
        </g>
        <path class="cls-10" d="m39.02,64.31s0-.05,0-.06c0,.02,0,.04,0,.06Z"/>
        <g>
          <path class="cls-6" d="m55.02,79.86h0l8.28,4.45,8.28,4.45-1.53,2.31s.01,0,.02,0l2.51-3.72-17.25-9.35c-.35-.19-.77.13-.67.52l.5,2.05-.15-.71h0Z"/>
          <path class="cls-6" d="m69.94,91.31s-.09-.06-.11-.11c-.04-.09-.05-.19,0-.27l1.37-2.07-15.81-8.5.03.15c.03.14-.06.28-.2.31-.14.03-.28-.05-.32-.2l-.5-2.05c-.07-.28.03-.57.26-.75.23-.18.54-.2.79-.06l17.25,9.35c.07.04.11.1.13.17.02.07,0,.15-.04.21l-2.51,3.72c-.05.08-.14.12-.23.12-.04,0-.08-.01-.12-.03Zm-14.72-11.64l16.32,8.77.67-.99-16.99-9.21h0c-.1-.06-.18,0-.21.02-.03.02-.1.09-.07.21l.29,1.21Z"/>
        </g>
        <g>
          <path class="cls-7" d="m39.78,92.74c.72.76,1.45,1.42,2.18,1.94,4.15,2.92,9.85,5.07,17.1,3.73l1.82,6.52,8.1-12.24,1.07-1.62,1.53-2.31-8.28-4.45-8.28-4.45h0l.15.71h0s1.2,5.61,1.2,5.61c0,0-2.82,1.1-6.24.36-9.98-2.15-11.99-7.39-11.9-12.74.07-3.6,1.37-7.67.78-9.29,0,0,0,0,0,0-.06-.17-.14-.33-.23-.46-.02.13-.49.9-1.21,2-5.42,8.37-4.62,19.43,2.22,26.68Z"/>
          <path class="cls-6" d="m44.39,96.59c-.89-.48-1.77-1.02-2.63-1.62-.71-.5-1.46-1.17-2.23-1.98h0c-6.91-7.34-7.84-18.49-2.25-27.12.96-1.49,1.13-1.82,1.16-1.89.03-.13.13-.23.26-.26.14-.03.29.02.37.14.11.15.2.33.28.54,0,0,0,.02,0,.02.35,1.02.08,2.73-.24,4.71-.23,1.47-.5,3.14-.53,4.69-.08,4.59,1.16,10.14,11.62,12.39,2.66.57,4.97-.01,5.76-.25l-1.28-6.01c-.03-.13.02-.27.13-.36.11-.08.25-.1.38-.03l16.57,8.9c.09.05.15.13.18.22.02.1,0,.2-.05.28l-10.69,16.16c-.08.12-.21.18-.35.15-.14-.02-.25-.12-.29-.25l-1.74-6.21c-5.14.89-9.98.14-14.42-2.22Zm-4.35-4.09c.73.78,1.45,1.41,2.12,1.89,5.07,3.56,10.73,4.8,16.84,3.67.18-.03.36.08.4.25l1.61,5.78,10.05-15.2-15.55-8.36,1.19,5.58c.04.17-.06.34-.22.4-.12.05-2.96,1.13-6.44.38-11.08-2.38-12.26-8.61-12.17-13.1.03-1.6.3-3.29.54-4.79.27-1.67.52-3.26.33-4.15-.18.31-.46.75-.88,1.39-5.41,8.36-4.51,19.15,2.18,26.25h0Z"/>
        </g>
        <path class="cls-3" d="m50.94,89.22c3.42.74,6.24-.36,6.24-.36l-1.2-5.61h0s-.15-.71-.15-.71l8.28,4.45,6.38,3.43,1.09-1.65-8.28-4.45-8.28-4.45.15.71h0s1.2,5.61,1.2,5.61c0,0-2.82,1.1-6.24.36-6.33-1.36-9.45-3.97-10.87-7.06.74,4.22,3.59,7.99,11.68,9.73Z"/>
      </g>
      <path class="cls-9" d="m45.24,94.67c-1.27-.67-2.5-1.55-3.64-2.68-.14-.14-.14-.36,0-.5.14-.14.36-.14.5,0,6.16,6.12,15.4,4.41,15.49,4.39.19-.04.38.09.41.28.04.19-.09.38-.28.41-.08.02-6.6,1.22-12.48-1.91Z"/>
    </g>
    <rect class="cls-8" x="28.48" y="62.88" width="18.88" height="8.91"/>
    <line class="cls-13" x1="26.74" y1="71.82" x2="48.24" y2="71.82"/>
  </g>
</svg>